<?xml version="1.0" standalone="no"?>
 <!DOCTYPE svg PUBLIC "-//W3C//DTD SVG 1.1//EN" 
 "http://www.w3.org/Graphics/SVG/1.1/DTD/svg11.dtd"> 
<svg
  xmlns:svg="http://www.w3.org/2000/svg"
  xmlns="http://www.w3.org/2000/svg"
  xmlns:xlink="http://www.w3.org/1999/xlink"
  version="1.1"
  width="24.767540cm" height="7.622540cm" viewBox="0 0 247675400 76225400">
<title>SVG Picture created as mx-choc-plate-Edge_Cuts.svg date 2022/03/29 19:20:49 </title>
  <desc>Picture generated by PCBNEW </desc>
<g style="fill:#000000; fill-opacity:1.000000;stroke:#000000; stroke-opacity:1.000000;
stroke-linecap:round; stroke-linejoin:round;"
 transform="translate(0 0) scale(1 1)">
</g>
<g style="fill:#000000; fill-opacity:0.0; 
stroke:#000000; stroke-width:0.000000; stroke-opacity:1; 
stroke-linecap:round; stroke-linejoin:round;">
</g>
<g style="fill:#000000; fill-opacity:0.0; 
stroke:#000000; stroke-width:200000.000000; stroke-opacity:1; 
stroke-linecap:round; stroke-linejoin:round;">
<path d="M59675400.000001 73200000.000000 A500001.000000 500001.000000 0.0 0 0 60175400.000000 73699999.999999" />
<path d="M73175400.000000 73699999.999999 A500001.000000 500001.000000 0.0 0 0 73675399.999999 73200000.000000" />
<path d="M60175400.000000 59700000.000001 A500001.000000 500001.000000 0.0 0 0 59675400.000001 60200000.000000" />
<path d="M73675399.999999 60200000.000000 A500001.000000 500001.000000 0.0 0 0 73175400.000000 59700000.000001" />
<path d="M59675400 60200000
L59675400 73200000
" />
<path d="M73675400 60200000
L73675400 73200000
" />
<path d="M73175400 73700000
L60175400 73700000
" />
<path d="M73175400 59700000
L60175400 59700000
" />
<path d="M78725400.000001 73200000.000000 A500001.000000 500001.000000 0.0 0 0 79225400.000000 73699999.999999" />
<path d="M92225400.000000 73699999.999999 A500001.000000 500001.000000 0.0 0 0 92725399.999999 73200000.000000" />
<path d="M79225400.000000 59700000.000001 A500001.000000 500001.000000 0.0 0 0 78725400.000001 60200000.000000" />
<path d="M92725399.999999 60200000.000000 A500001.000000 500001.000000 0.0 0 0 92225400.000000 59700000.000001" />
<path d="M78725400 60200000
L78725400 73200000
" />
<path d="M92725400 60200000
L92725400 73200000
" />
<path d="M92225400 73700000
L79225400 73700000
" />
<path d="M92225400 59700000
L79225400 59700000
" />
<path d="M97775400.000001 73200000.000000 A500001.000000 500001.000000 0.0 0 0 98275400.000000 73699999.999999" />
<path d="M111275400.000000 73699999.999999 A500001.000000 500001.000000 0.0 0 0 111775399.999999 73200000.000000" />
<path d="M98275400.000000 59700000.000001 A500001.000000 500001.000000 0.0 0 0 97775400.000001 60200000.000000" />
<path d="M111775399.999999 60200000.000000 A500001.000000 500001.000000 0.0 0 0 111275400.000000 59700000.000001" />
<path d="M97775400 60200000
L97775400 73200000
" />
<path d="M111775400 60200000
L111775400 73200000
" />
<path d="M111275400 73700000
L98275400 73700000
" />
<path d="M111275400 59700000
L98275400 59700000
" />
<path d="M154925400.000001 73200000.000000 A500001.000000 500001.000000 0.0 0 0 155425400.000000 73699999.999999" />
<path d="M168425400.000000 73699999.999999 A500001.000000 500001.000000 0.0 0 0 168925399.999999 73200000.000000" />
<path d="M155425400.000000 59700000.000001 A500001.000000 500001.000000 0.0 0 0 154925400.000001 60200000.000000" />
<path d="M168925399.999999 60200000.000000 A500001.000000 500001.000000 0.0 0 0 168425400.000000 59700000.000001" />
<path d="M154925400 60200000
L154925400 73200000
" />
<path d="M168925400 60200000
L168925400 73200000
" />
<path d="M168425400 73700000
L155425400 73700000
" />
<path d="M168425400 59700000
L155425400 59700000
" />
<path d="M173975400.000001 73200000.000000 A500001.000000 500001.000000 0.0 0 0 174475400.000000 73699999.999999" />
<path d="M187475400.000000 73699999.999999 A500001.000000 500001.000000 0.0 0 0 187975399.999999 73200000.000000" />
<path d="M174475400.000000 59700000.000001 A500001.000000 500001.000000 0.0 0 0 173975400.000001 60200000.000000" />
<path d="M187975399.999999 60200000.000000 A500001.000000 500001.000000 0.0 0 0 187475400.000000 59700000.000001" />
<path d="M173975400 60200000
L173975400 73200000
" />
<path d="M187975400 60200000
L187975400 73200000
" />
<path d="M187475400 73700000
L174475400 73700000
" />
<path d="M187475400 59700000
L174475400 59700000
" />
<path d="M193025400.000001 73200000.000000 A500001.000000 500001.000000 0.0 0 0 193525400.000000 73699999.999999" />
<path d="M206525400.000000 73699999.999999 A500001.000000 500001.000000 0.0 0 0 207025399.999999 73200000.000000" />
<path d="M193525400.000000 59700000.000001 A500001.000000 500001.000000 0.0 0 0 193025400.000001 60200000.000000" />
<path d="M207025399.999999 60200000.000000 A500001.000000 500001.000000 0.0 0 0 206525400.000000 59700000.000001" />
<path d="M193025400 60200000
L193025400 73200000
" />
<path d="M207025400 60200000
L207025400 73200000
" />
<path d="M206525400 73700000
L193525400 73700000
" />
<path d="M206525400 59700000
L193525400 59700000
" />
<path d="M2525400.000001 35100000.000000 A500001.000000 500001.000000 0.0 0 0 3025400.000000 35599999.999999" />
<path d="M16025400.000000 35599999.999999 A500001.000000 500001.000000 0.0 0 0 16525399.999999 35100000.000000" />
<path d="M3025400.000000 21600000.000001 A500001.000000 500001.000000 0.0 0 0 2525400.000001 22100000.000000" />
<path d="M16525399.999999 22100000.000000 A500001.000000 500001.000000 0.0 0 0 16025400.000000 21600000.000001" />
<path d="M2525400 22100000
L2525400 35100000
" />
<path d="M16525400 22100000
L16525400 35100000
" />
<path d="M16025400 35600000
L3025400 35600000
" />
<path d="M16025400 21600000
L3025400 21600000
" />
<path d="M21575400.000001 35100000.000000 A500001.000000 500001.000000 0.0 0 0 22075400.000000 35599999.999999" />
<path d="M35075400.000000 35599999.999999 A500001.000000 500001.000000 0.0 0 0 35575399.999999 35100000.000000" />
<path d="M22075400.000000 21600000.000001 A500001.000000 500001.000000 0.0 0 0 21575400.000001 22100000.000000" />
<path d="M35575399.999999 22100000.000000 A500001.000000 500001.000000 0.0 0 0 35075400.000000 21600000.000001" />
<path d="M21575400 22100000
L21575400 35100000
" />
<path d="M35575400 22100000
L35575400 35100000
" />
<path d="M35075400 35600000
L22075400 35600000
" />
<path d="M35075400 21600000
L22075400 21600000
" />
<path d="M40625400.000001 35100000.000000 A500001.000000 500001.000000 0.0 0 0 41125400.000000 35599999.999999" />
<path d="M54125400.000000 35599999.999999 A500001.000000 500001.000000 0.0 0 0 54625399.999999 35100000.000000" />
<path d="M41125400.000000 21600000.000001 A500001.000000 500001.000000 0.0 0 0 40625400.000001 22100000.000000" />
<path d="M54625399.999999 22100000.000000 A500001.000000 500001.000000 0.0 0 0 54125400.000000 21600000.000001" />
<path d="M40625400 22100000
L40625400 35100000
" />
<path d="M54625400 22100000
L54625400 35100000
" />
<path d="M54125400 35600000
L41125400 35600000
" />
<path d="M54125400 21600000
L41125400 21600000
" />
<path d="M59675400.000001 35100000.000000 A500001.000000 500001.000000 0.0 0 0 60175400.000000 35599999.999999" />
<path d="M73175400.000000 35599999.999999 A500001.000000 500001.000000 0.0 0 0 73675399.999999 35100000.000000" />
<path d="M60175400.000000 21600000.000001 A500001.000000 500001.000000 0.0 0 0 59675400.000001 22100000.000000" />
<path d="M73675399.999999 22100000.000000 A500001.000000 500001.000000 0.0 0 0 73175400.000000 21600000.000001" />
<path d="M59675400 22100000
L59675400 35100000
" />
<path d="M73675400 22100000
L73675400 35100000
" />
<path d="M73175400 35600000
L60175400 35600000
" />
<path d="M73175400 21600000
L60175400 21600000
" />
<path d="M78725400.000001 35100000.000000 A500001.000000 500001.000000 0.0 0 0 79225400.000000 35599999.999999" />
<path d="M92225400.000000 35599999.999999 A500001.000000 500001.000000 0.0 0 0 92725399.999999 35100000.000000" />
<path d="M79225400.000000 21600000.000001 A500001.000000 500001.000000 0.0 0 0 78725400.000001 22100000.000000" />
<path d="M92725399.999999 22100000.000000 A500001.000000 500001.000000 0.0 0 0 92225400.000000 21600000.000001" />
<path d="M78725400 22100000
L78725400 35100000
" />
<path d="M92725400 22100000
L92725400 35100000
" />
<path d="M92225400 35600000
L79225400 35600000
" />
<path d="M92225400 21600000
L79225400 21600000
" />
<path d="M97775400.000001 35100000.000000 A500001.000000 500001.000000 0.0 0 0 98275400.000000 35599999.999999" />
<path d="M111275400.000000 35599999.999999 A500001.000000 500001.000000 0.0 0 0 111775399.999999 35100000.000000" />
<path d="M98275400.000000 21600000.000001 A500001.000000 500001.000000 0.0 0 0 97775400.000001 22100000.000000" />
<path d="M111775399.999999 22100000.000000 A500001.000000 500001.000000 0.0 0 0 111275400.000000 21600000.000001" />
<path d="M97775400 22100000
L97775400 35100000
" />
<path d="M111775400 22100000
L111775400 35100000
" />
<path d="M111275400 35600000
L98275400 35600000
" />
<path d="M111275400 21600000
L98275400 21600000
" />
<path d="M154925400.000001 35100000.000000 A500001.000000 500001.000000 0.0 0 0 155425400.000000 35599999.999999" />
<path d="M168425400.000000 35599999.999999 A500001.000000 500001.000000 0.0 0 0 168925399.999999 35100000.000000" />
<path d="M155425400.000000 21600000.000001 A500001.000000 500001.000000 0.0 0 0 154925400.000001 22100000.000000" />
<path d="M168925399.999999 22100000.000000 A500001.000000 500001.000000 0.0 0 0 168425400.000000 21600000.000001" />
<path d="M154925400 22100000
L154925400 35100000
" />
<path d="M168925400 22100000
L168925400 35100000
" />
<path d="M168425400 35600000
L155425400 35600000
" />
<path d="M168425400 21600000
L155425400 21600000
" />
<path d="M173975400.000001 35100000.000000 A500001.000000 500001.000000 0.0 0 0 174475400.000000 35599999.999999" />
<path d="M187475400.000000 35599999.999999 A500001.000000 500001.000000 0.0 0 0 187975399.999999 35100000.000000" />
<path d="M174475400.000000 21600000.000001 A500001.000000 500001.000000 0.0 0 0 173975400.000001 22100000.000000" />
<path d="M187975399.999999 22100000.000000 A500001.000000 500001.000000 0.0 0 0 187475400.000000 21600000.000001" />
<path d="M173975400 22100000
L173975400 35100000
" />
<path d="M187975400 22100000
L187975400 35100000
" />
<path d="M187475400 35600000
L174475400 35600000
" />
<path d="M187475400 21600000
L174475400 21600000
" />
<path d="M193025400.000001 35100000.000000 A500001.000000 500001.000000 0.0 0 0 193525400.000000 35599999.999999" />
<path d="M206525400.000000 35599999.999999 A500001.000000 500001.000000 0.0 0 0 207025399.999999 35100000.000000" />
<path d="M193525400.000000 21600000.000001 A500001.000000 500001.000000 0.0 0 0 193025400.000001 22100000.000000" />
<path d="M207025399.999999 22100000.000000 A500001.000000 500001.000000 0.0 0 0 206525400.000000 21600000.000001" />
<path d="M193025400 22100000
L193025400 35100000
" />
<path d="M207025400 22100000
L207025400 35100000
" />
<path d="M206525400 35600000
L193525400 35600000
" />
<path d="M206525400 21600000
L193525400 21600000
" />
<path d="M212075400.000001 35100000.000000 A500001.000000 500001.000000 0.0 0 0 212575400.000000 35599999.999999" />
<path d="M225575400.000000 35599999.999999 A500001.000000 500001.000000 0.0 0 0 226075399.999999 35100000.000000" />
<path d="M212575400.000000 21600000.000001 A500001.000000 500001.000000 0.0 0 0 212075400.000001 22100000.000000" />
<path d="M226075399.999999 22100000.000000 A500001.000000 500001.000000 0.0 0 0 225575400.000000 21600000.000001" />
<path d="M212075400 22100000
L212075400 35100000
" />
<path d="M226075400 22100000
L226075400 35100000
" />
<path d="M225575400 35600000
L212575400 35600000
" />
<path d="M225575400 21600000
L212575400 21600000
" />
<path d="M231125400.000001 35100000.000000 A500001.000000 500001.000000 0.0 0 0 231625400.000000 35599999.999999" />
<path d="M244625400.000000 35599999.999999 A500001.000000 500001.000000 0.0 0 0 245125399.999999 35100000.000000" />
<path d="M231625400.000000 21600000.000001 A500001.000000 500001.000000 0.0 0 0 231125400.000001 22100000.000000" />
<path d="M245125399.999999 22100000.000000 A500001.000000 500001.000000 0.0 0 0 244625400.000000 21600000.000001" />
<path d="M231125400 22100000
L231125400 35100000
" />
<path d="M245125400 22100000
L245125400 35100000
" />
<path d="M244625400 35600000
L231625400 35600000
" />
<path d="M244625400 21600000
L231625400 21600000
" />
<path d="M2525400.000001 16050000.000000 A500001.000000 500001.000000 0.0 0 0 3025400.000000 16549999.999999" />
<path d="M16025400.000000 16549999.999999 A500001.000000 500001.000000 0.0 0 0 16525399.999999 16050000.000000" />
<path d="M3025400.000000 2550000.000001 A500001.000000 500001.000000 0.0 0 0 2525400.000001 3050000.000000" />
<path d="M16525399.999999 3050000.000000 A500001.000000 500001.000000 0.0 0 0 16025400.000000 2550000.000001" />
<path d="M2525400 3050000
L2525400 16050000
" />
<path d="M16525400 3050000
L16525400 16050000
" />
<path d="M16025400 16550000
L3025400 16550000
" />
<path d="M16025400 2550000
L3025400 2550000
" />
<path d="M21575400.000001 16050000.000000 A500001.000000 500001.000000 0.0 0 0 22075400.000000 16549999.999999" />
<path d="M35075400.000000 16549999.999999 A500001.000000 500001.000000 0.0 0 0 35575399.999999 16050000.000000" />
<path d="M22075400.000000 2550000.000001 A500001.000000 500001.000000 0.0 0 0 21575400.000001 3050000.000000" />
<path d="M35575399.999999 3050000.000000 A500001.000000 500001.000000 0.0 0 0 35075400.000000 2550000.000001" />
<path d="M21575400 3050000
L21575400 16050000
" />
<path d="M35575400 3050000
L35575400 16050000
" />
<path d="M35075400 16550000
L22075400 16550000
" />
<path d="M35075400 2550000
L22075400 2550000
" />
<path d="M40625400.000001 16050000.000000 A500001.000000 500001.000000 0.0 0 0 41125400.000000 16549999.999999" />
<path d="M54125400.000000 16549999.999999 A500001.000000 500001.000000 0.0 0 0 54625399.999999 16050000.000000" />
<path d="M41125400.000000 2550000.000001 A500001.000000 500001.000000 0.0 0 0 40625400.000001 3050000.000000" />
<path d="M54625399.999999 3050000.000000 A500001.000000 500001.000000 0.0 0 0 54125400.000000 2550000.000001" />
<path d="M40625400 3050000
L40625400 16050000
" />
<path d="M54625400 3050000
L54625400 16050000
" />
<path d="M54125400 16550000
L41125400 16550000
" />
<path d="M54125400 2550000
L41125400 2550000
" />
<path d="M59675400.000001 16050000.000000 A500001.000000 500001.000000 0.0 0 0 60175400.000000 16549999.999999" />
<path d="M73175400.000000 16549999.999999 A500001.000000 500001.000000 0.0 0 0 73675399.999999 16050000.000000" />
<path d="M60175400.000000 2550000.000001 A500001.000000 500001.000000 0.0 0 0 59675400.000001 3050000.000000" />
<path d="M73675399.999999 3050000.000000 A500001.000000 500001.000000 0.0 0 0 73175400.000000 2550000.000001" />
<path d="M59675400 3050000
L59675400 16050000
" />
<path d="M73675400 3050000
L73675400 16050000
" />
<path d="M73175400 16550000
L60175400 16550000
" />
<path d="M73175400 2550000
L60175400 2550000
" />
<path d="M78725400.000001 16050000.000000 A500001.000000 500001.000000 0.0 0 0 79225400.000000 16549999.999999" />
<path d="M92225400.000000 16549999.999999 A500001.000000 500001.000000 0.0 0 0 92725399.999999 16050000.000000" />
<path d="M79225400.000000 2550000.000001 A500001.000000 500001.000000 0.0 0 0 78725400.000001 3050000.000000" />
<path d="M92725399.999999 3050000.000000 A500001.000000 500001.000000 0.0 0 0 92225400.000000 2550000.000001" />
<path d="M78725400 3050000
L78725400 16050000
" />
<path d="M92725400 3050000
L92725400 16050000
" />
<path d="M92225400 16550000
L79225400 16550000
" />
<path d="M92225400 2550000
L79225400 2550000
" />
<path d="M97775400.000001 16050000.000000 A500001.000000 500001.000000 0.0 0 0 98275400.000000 16549999.999999" />
<path d="M111275400.000000 16549999.999999 A500001.000000 500001.000000 0.0 0 0 111775399.999999 16050000.000000" />
<path d="M98275400.000000 2550000.000001 A500001.000000 500001.000000 0.0 0 0 97775400.000001 3050000.000000" />
<path d="M111775399.999999 3050000.000000 A500001.000000 500001.000000 0.0 0 0 111275400.000000 2550000.000001" />
<path d="M97775400 3050000
L97775400 16050000
" />
<path d="M111775400 3050000
L111775400 16050000
" />
<path d="M111275400 16550000
L98275400 16550000
" />
<path d="M111275400 2550000
L98275400 2550000
" />
<path d="M154925400.000001 16050000.000000 A500001.000000 500001.000000 0.0 0 0 155425400.000000 16549999.999999" />
<path d="M168425400.000000 16549999.999999 A500001.000000 500001.000000 0.0 0 0 168925399.999999 16050000.000000" />
<path d="M155425400.000000 2550000.000001 A500001.000000 500001.000000 0.0 0 0 154925400.000001 3050000.000000" />
<path d="M168925399.999999 3050000.000000 A500001.000000 500001.000000 0.0 0 0 168425400.000000 2550000.000001" />
<path d="M154925400 3050000
L154925400 16050000
" />
<path d="M168925400 3050000
L168925400 16050000
" />
<path d="M168425400 16550000
L155425400 16550000
" />
<path d="M168425400 2550000
L155425400 2550000
" />
<path d="M173975400.000001 16050000.000000 A500001.000000 500001.000000 0.0 0 0 174475400.000000 16549999.999999" />
<path d="M187475400.000000 16549999.999999 A500001.000000 500001.000000 0.0 0 0 187975399.999999 16050000.000000" />
<path d="M174475400.000000 2550000.000001 A500001.000000 500001.000000 0.0 0 0 173975400.000001 3050000.000000" />
<path d="M187975399.999999 3050000.000000 A500001.000000 500001.000000 0.0 0 0 187475400.000000 2550000.000001" />
<path d="M173975400 3050000
L173975400 16050000
" />
<path d="M187975400 3050000
L187975400 16050000
" />
<path d="M187475400 16550000
L174475400 16550000
" />
<path d="M187475400 2550000
L174475400 2550000
" />
<path d="M193025400.000001 16050000.000000 A500001.000000 500001.000000 0.0 0 0 193525400.000000 16549999.999999" />
<path d="M206525400.000000 16549999.999999 A500001.000000 500001.000000 0.0 0 0 207025399.999999 16050000.000000" />
<path d="M193525400.000000 2550000.000001 A500001.000000 500001.000000 0.0 0 0 193025400.000001 3050000.000000" />
<path d="M207025399.999999 3050000.000000 A500001.000000 500001.000000 0.0 0 0 206525400.000000 2550000.000001" />
<path d="M193025400 3050000
L193025400 16050000
" />
<path d="M207025400 3050000
L207025400 16050000
" />
<path d="M206525400 16550000
L193525400 16550000
" />
<path d="M206525400 2550000
L193525400 2550000
" />
<path d="M212075400.000001 16050000.000000 A500001.000000 500001.000000 0.0 0 0 212575400.000000 16549999.999999" />
<path d="M225575400.000000 16549999.999999 A500001.000000 500001.000000 0.0 0 0 226075399.999999 16050000.000000" />
<path d="M212575400.000000 2550000.000001 A500001.000000 500001.000000 0.0 0 0 212075400.000001 3050000.000000" />
<path d="M226075399.999999 3050000.000000 A500001.000000 500001.000000 0.0 0 0 225575400.000000 2550000.000001" />
<path d="M212075400 3050000
L212075400 16050000
" />
<path d="M226075400 3050000
L226075400 16050000
" />
<path d="M225575400 16550000
L212575400 16550000
" />
<path d="M225575400 2550000
L212575400 2550000
" />
<path d="M231125400.000001 16050000.000000 A500001.000000 500001.000000 0.0 0 0 231625400.000000 16549999.999999" />
<path d="M244625400.000000 16549999.999999 A500001.000000 500001.000000 0.0 0 0 245125399.999999 16050000.000000" />
<path d="M231625400.000000 2550000.000001 A500001.000000 500001.000000 0.0 0 0 231125400.000001 3050000.000000" />
<path d="M245125399.999999 3050000.000000 A500001.000000 500001.000000 0.0 0 0 244625400.000000 2550000.000001" />
<path d="M231125400 3050000
L231125400 16050000
" />
<path d="M245125400 3050000
L245125400 16050000
" />
<path d="M244625400 16550000
L231625400 16550000
" />
<path d="M244625400 2550000
L231625400 2550000
" />
</g>
<g style="fill:#000000; fill-opacity:0.0; 
stroke:#000000; stroke-width:50000.000000; stroke-opacity:1; 
stroke-linecap:round; stroke-linejoin:round;">
<path d="M247650400 2406250
L247650400 35743750
" />
<path d="M400 35743750
L400 2406250
" />
<path d="M2381650 25000
L245269150 25000
" />
<path d="M245269150 38125000
L211931650 38125000
" />
<path d="M209550400 40506250
L209550400 73843750
" />
<path d="M207169150 76225000
L59531650 76225000
" />
<path d="M57150400 73843750
L57150400 40506250
" />
<path d="M54769150 38125000
L2381650 38125000
" />
<path d="M207169150.000000 76225000.000000 A2381250.000000 2381250.000000 0.0 0 0 209550400.000000 73843750.000000" />
<path d="M211931650.000000 38125000.000000 A2381250.000000 2381250.000000 0.0 0 0 209550400.000000 40506250.000000" />
<path d="M2381650.000000 25000.000000 A2381250.000000 2381250.000000 0.0 0 0 400.000000 2406250.000000" />
<path d="M400.000000 35743750.000000 A2381250.000000 2381250.000000 0.0 0 0 2381650.000000 38125000.000000" />
<path d="M247650400.000000 2406250.000000 A2381250.000000 2381250.000000 0.0 0 0 245269150.000000 25000.000000" />
<path d="M57150400.000000 40506250.000000 A2381250.000000 2381250.000000 0.0 0 0 54769150.000000 38125000.000000" />
<path d="M245269150.000000 38125000.000000 A2381250.000000 2381250.000000 0.0 0 0 247650400.000000 35743750.000000" />
<path d="M57150400.000000 73843750.000000 A2381250.000000 2381250.000000 0.0 0 0 59531650.000000 76225000.000000" />
<g >
</g>
<g >
</g>
<g >
</g>
<g >
</g>
<g >
</g>
<g >
</g>
<g >
</g>
<g >
</g>
<g >
</g>
</g> 
</svg>
