<?xml version="1.0" encoding="UTF-8" standalone="no"?>
<svg
   version="1.1"
   width="24.772620cm"
   height="7.627620cm"
   viewBox="0 0 247726200 76276200"
   id="svg351"
   sodipodi:docname="mx-choc-plate-Edge_Cuts.svg"
   inkscape:version="1.2.2 (b0a84865, 2022-12-01)"
   xmlns:inkscape="http://www.inkscape.org/namespaces/inkscape"
   xmlns:sodipodi="http://sodipodi.sourceforge.net/DTD/sodipodi-0.dtd"
   xmlns="http://www.w3.org/2000/svg"
   xmlns:svg="http://www.w3.org/2000/svg">
  <defs
     id="defs355" />
  <sodipodi:namedview
     id="namedview353"
     pagecolor="#ffffff"
     bordercolor="#666666"
     borderopacity="1.0"
     inkscape:showpageshadow="2"
     inkscape:pageopacity="0.0"
     inkscape:pagecheckerboard="0"
     inkscape:deskcolor="#d1d1d1"
     inkscape:document-units="cm"
     showgrid="false"
     inkscape:zoom="1.1577117"
     inkscape:cx="446.13871"
     inkscape:cy="187.43872"
     inkscape:window-width="1920"
     inkscape:window-height="946"
     inkscape:window-x="0"
     inkscape:window-y="25"
     inkscape:window-maximized="1"
     inkscape:current-layer="svg351" />
  <title
     id="title9">SVG Picture created as mx-choc-plate-Edge_Cuts.svg date 2023/05/04 14:45:32 </title>
  <desc
     id="desc11">Picture generated by PCBNEW </desc>
  <g
     style="fill:#000000; fill-opacity:1.000000;stroke:#000000; stroke-opacity:1.000000; stroke-linecap:round; stroke-linejoin:round;"
     transform="translate(0 0) scale(1 1)"
     id="g13" />
  <g
     style="fill:#000000; fill-opacity:0.0;  stroke:#000000; stroke-width:0.000000; stroke-opacity:1;  stroke-linecap:round; stroke-linejoin:round;"
     id="g15" />
  <g
     style="fill:#000000;fill-opacity:0;stroke:#000000;stroke-width:50000;stroke-linecap:round;stroke-linejoin:round;stroke-opacity:1"
     id="g49"
     transform="matrix(-1,0,0,1,247702400,0)">
    <path
       d="M 247676200,2431250 V 35768750"
       id="path17"
       style="fill:#000000" />
    <path
       d="M 26200,35768750 V 2431250"
       id="path19"
       style="fill:#000000" />
    <path
       d="M 2407450,50000 H 245294950"
       id="path21"
       style="fill:#000000" />
    <path
       d="M 245294950,38150000 H 211957450"
       id="path23"
       style="fill:#000000" />
    <path
       d="M 209576200,40531250 V 73868750"
       id="path25"
       style="fill:#000000" />
    <path
       d="M 207194950,76250000 H 59557450"
       id="path27"
       style="fill:#000000" />
    <path
       d="M 57176200,73868750 V 40531250"
       id="path29"
       style="fill:#000000" />
    <path
       d="M 54794950,38150000 H 2407450"
       id="path31"
       style="fill:#000000" />
    <path
       d="m 207194950,76250000 a 2381250,2381250 0 0 0 2381250,-2381250"
       id="path33"
       style="fill:#000000" />
    <path
       d="m 211957450,38150000 a 2381250,2381250 0 0 0 -2381250,2381250"
       id="path35"
       style="fill:#000000" />
    <path
       d="M 2407450,50000 A 2381250,2381250 0 0 0 26200,2431250"
       id="path37"
       style="fill:#000000" />
    <path
       d="m 26200,35768750 a 2381250,2381250 0 0 0 2381250,2381250"
       id="path39"
       style="fill:#000000" />
    <path
       d="M 247676200,2431250 A 2381250,2381250 0 0 0 245294950,50000"
       id="path41"
       style="fill:#000000" />
    <path
       d="M 57176200,40531250 A 2381250,2381250 0 0 0 54794950,38150000"
       id="path43"
       style="fill:#000000" />
    <path
       d="m 245294950,38150000 a 2381250,2381250 0 0 0 2381250,-2381250"
       id="path45"
       style="fill:#000000" />
    <path
       d="m 57176200,73868750 a 2381250,2381250 0 0 0 2381250,2381250"
       id="path47"
       style="fill:#000000" />
  </g>
  <g
     style="fill:#000000;fill-opacity:0;stroke:#000000;stroke-width:150000;stroke-linecap:round;stroke-linejoin:round;stroke-opacity:1"
     id="g349"
     transform="matrix(-1,0,0,1,247702400,0)">
    <path
       d="M 2551200,16575000 V 2575000"
       id="path51" />
    <path
       d="M 2551200,2575000 H 16551200"
       id="path53" />
    <path
       d="M 16551200,2575000 V 16575000"
       id="path55" />
    <path
       d="M 16551200,16575000 H 2551200"
       id="path57" />
    <path
       d="M 35601200,2575000 V 16575000"
       id="path59" />
    <path
       d="M 21601200,2575000 H 35601200"
       id="path61" />
    <path
       d="M 21601200,16575000 V 2575000"
       id="path63" />
    <path
       d="M 35601200,16575000 H 21601200"
       id="path65" />
    <path
       d="M 245151200,21625000 V 35625000"
       id="path67" />
    <path
       d="M 245151200,35625000 H 231151200"
       id="path69" />
    <path
       d="m 231151200,21625000 h 14000000"
       id="path71" />
    <path
       d="M 231151200,35625000 V 21625000"
       id="path73" />
    <path
       d="M 188001200,16575000 H 174001200"
       id="path75" />
    <path
       d="M 188001200,2575000 V 16575000"
       id="path77" />
    <path
       d="M 174001200,16575000 V 2575000"
       id="path79" />
    <path
       d="m 174001200,2575000 h 14000000"
       id="path81" />
    <path
       d="M 168951200,21625000 V 35625000"
       id="path83" />
    <path
       d="M 168951200,35625000 H 154951200"
       id="path85" />
    <path
       d="m 154951200,21625000 h 14000000"
       id="path87" />
    <path
       d="M 154951200,35625000 V 21625000"
       id="path89" />
    <path
       d="M 111801200,21625000 V 35625000"
       id="path91" />
    <path
       d="m 97801200,21625000 h 14000000"
       id="path93" />
    <path
       d="M 97801200,35625000 V 21625000"
       id="path95" />
    <path
       d="M 111801200,35625000 H 97801200"
       id="path97" />
    <path
       d="M 73701200,35625000 H 59701200"
       id="path99" />
    <path
       d="M 59701200,21625000 H 73701200"
       id="path101" />
    <path
       d="M 59701200,35625000 V 21625000"
       id="path103" />
    <path
       d="M 73701200,21625000 V 35625000"
       id="path105" />
    <path
       d="M 92751200,35625000 H 78751200"
       id="path107" />
    <path
       d="M 78751200,35625000 V 21625000"
       id="path109" />
    <path
       d="M 92751200,21625000 V 35625000"
       id="path111" />
    <path
       d="M 78751200,21625000 H 92751200"
       id="path113" />
    <path
       d="M 40651200,2575000 H 54651200"
       id="path115" />
    <path
       d="M 40651200,16575000 V 2575000"
       id="path117" />
    <path
       d="M 54651200,16575000 H 40651200"
       id="path119" />
    <path
       d="M 54651200,2575000 V 16575000"
       id="path121" />
    <path
       d="M 207051200,59725000 V 73725000"
       id="path123" />
    <path
       d="M 207051200,73725000 H 193051200"
       id="path125" />
    <path
       d="m 193051200,59725000 h 14000000"
       id="path127" />
    <path
       d="M 193051200,73725000 V 59725000"
       id="path129" />
    <path
       d="m 193051200,21625000 h 14000000"
       id="path131" />
    <path
       d="M 207051200,21625000 V 35625000"
       id="path133" />
    <path
       d="M 193051200,35625000 V 21625000"
       id="path135" />
    <path
       d="M 207051200,35625000 H 193051200"
       id="path137" />
    <path
       d="M 226101200,21625000 V 35625000"
       id="path139" />
    <path
       d="M 226101200,35625000 H 212101200"
       id="path141" />
    <path
       d="m 212101200,21625000 h 14000000"
       id="path143" />
    <path
       d="M 212101200,35625000 V 21625000"
       id="path145" />
    <path
       d="M 92751200,59725000 V 73725000"
       id="path147" />
    <path
       d="M 92751200,73725000 H 78751200"
       id="path149" />
    <path
       d="M 78751200,73725000 V 59725000"
       id="path151" />
    <path
       d="M 78751200,59725000 H 92751200"
       id="path153" />
    <path
       d="m 97801200,59725000 h 14000000"
       id="path155" />
    <path
       d="M 97801200,73725000 V 59725000"
       id="path157" />
    <path
       d="M 111801200,73725000 H 97801200"
       id="path159" />
    <path
       d="M 111801200,59725000 V 73725000"
       id="path161" />
    <path
       d="M 226101200,2575000 V 16575000"
       id="path163" />
    <path
       d="M 226101200,16575000 H 212101200"
       id="path165" />
    <path
       d="m 212101200,2575000 h 14000000"
       id="path167" />
    <path
       d="M 212101200,16575000 V 2575000"
       id="path169" />
    <path
       d="M 2551200,21625000 H 16551200"
       id="path171" />
    <path
       d="M 16551200,21625000 V 35625000"
       id="path173" />
    <path
       d="M 16551200,35625000 H 2551200"
       id="path175" />
    <path
       d="M 2551200,35625000 V 21625000"
       id="path177" />
    <path
       d="m 193051200,2575000 h 14000000"
       id="path179" />
    <path
       d="M 207051200,2575000 V 16575000"
       id="path181" />
    <path
       d="M 207051200,16575000 H 193051200"
       id="path183" />
    <path
       d="M 193051200,16575000 V 2575000"
       id="path185" />
    <path
       d="M 35601200,35625000 H 21601200"
       id="path187" />
    <path
       d="M 35601200,21625000 V 35625000"
       id="path189" />
    <path
       d="M 21601200,35625000 V 21625000"
       id="path191" />
    <path
       d="M 21601200,21625000 H 35601200"
       id="path193" />
    <path
       d="M 92751200,2575000 V 16575000"
       id="path195" />
    <path
       d="M 92751200,16575000 H 78751200"
       id="path197" />
    <path
       d="M 78751200,16575000 V 2575000"
       id="path199" />
    <path
       d="M 78751200,2575000 H 92751200"
       id="path201" />
    <path
       d="M 59701200,73725000 V 59725000"
       id="path203" />
    <path
       d="M 73701200,59725000 V 73725000"
       id="path205" />
    <path
       d="M 73701200,73725000 H 59701200"
       id="path207" />
    <path
       d="M 59701200,59725000 H 73701200"
       id="path209" />
    <path
       d="M 40651200,35625000 V 21625000"
       id="path211" />
    <path
       d="M 54651200,21625000 V 35625000"
       id="path213" />
    <path
       d="M 54651200,35625000 H 40651200"
       id="path215" />
    <path
       d="M 40651200,21625000 H 54651200"
       id="path217" />
    <path
       d="M 59701200,2575000 H 73701200"
       id="path219" />
    <path
       d="M 73701200,2575000 V 16575000"
       id="path221" />
    <path
       d="M 73701200,16575000 H 59701200"
       id="path223" />
    <path
       d="M 59701200,16575000 V 2575000"
       id="path225" />
    <path
       d="M 154951200,73725000 V 59725000"
       id="path227" />
    <path
       d="m 154951200,59725000 h 14000000"
       id="path229" />
    <path
       d="M 168951200,73725000 H 154951200"
       id="path231" />
    <path
       d="M 168951200,59725000 V 73725000"
       id="path233" />
    <path
       d="m 174001200,59725000 h 14000000"
       id="path235" />
    <path
       d="M 188001200,73725000 H 174001200"
       id="path237" />
    <path
       d="M 188001200,59725000 V 73725000"
       id="path239" />
    <path
       d="M 174001200,73725000 V 59725000"
       id="path241" />
    <path
       d="M 154951200,16575000 V 2575000"
       id="path243" />
    <path
       d="M 168951200,16575000 H 154951200"
       id="path245" />
    <path
       d="m 154951200,2575000 h 14000000"
       id="path247" />
    <path
       d="M 168951200,2575000 V 16575000"
       id="path249" />
    <path
       d="m 231151200,2575000 h 14000000"
       id="path251" />
    <path
       d="M 245151200,16575000 H 231151200"
       id="path253" />
    <path
       d="M 245151200,2575000 V 16575000"
       id="path255" />
    <path
       d="M 231151200,16575000 V 2575000"
       id="path257" />
    <path
       d="m 174001200,21625000 h 14000000"
       id="path259" />
    <path
       d="M 188001200,35625000 H 174001200"
       id="path261" />
    <path
       d="M 174001200,35625000 V 21625000"
       id="path263" />
    <path
       d="M 188001200,21625000 V 35625000"
       id="path265" />
    <path
       d="M 111801200,16575000 H 97801200"
       id="path267" />
    <path
       d="M 97801200,16575000 V 2575000"
       id="path269" />
    <path
       d="M 111801200,2575000 V 16575000"
       id="path271" />
    <path
       d="m 97801200,2575000 h 14000000"
       id="path273" />
  </g>
</svg>
