<?xml version="1.0" encoding="UTF-8"?>
<svg width="252.6mm" height="81.153mm" version="1.1" viewBox="0 0 252.6 81.153" xmlns="http://www.w3.org/2000/svg">
<g transform="translate(2.4765 2.4765) scale(1 -1)">
<path transform="matrix(.26458 0 0 -.26458 -2.4765 2.4765)" d="m154.5 224.47v-71.786h-144.3v-142.11h934.31v142.11h-213.54v143.57h-576.48zm62.503 36.986-0.19097-27.512-55.024-0.38193v55.406h55.406zm71.595-0.1822v-27.694h-54.66v55.388h54.66zm72.151 0v-27.694h-54.66v55.388h54.66zm215.72 0v-27.694h-54.66v55.388h54.66zm72.151 0v-27.694h-54.66v55.388h54.66zm72.151 0v-27.694h-54.66v55.388h54.66zm-647.9-143.94v-27.33h-54.66v54.66h54.66zm72.151 0v-27.33h-55.388v54.66h55.388zm72.151 0v-27.33h-55.388v54.66h55.388zm71.422 0v-27.33h-54.66v54.66h54.66zm72.151 0v-27.33h-54.66v54.66h54.66zm215.72 0v-27.33h-54.66v54.66h54.66zm72.151 0v-27.33h-54.66v54.66h54.66zm72.151 0v-27.33h-54.66v54.66h54.66zm72.151 0v-27.33h-55.388v54.66h55.388zm72.151 0v-27.33h-55.388v54.66h55.388zm71.422 0v-27.33h-54.66v54.66h54.66zm-863.62-72.151v-27.33h-54.66v54.66h54.66zm72.151 0v-27.33h-55.388v54.66h55.388zm72.151 0v-27.33h-55.388v54.66h55.388zm71.422 0v-27.33h-54.66v54.66h54.66zm72.151 0v-27.33h-54.66v54.66h54.66zm215.72 0v-27.33h-54.66v54.66h54.66zm72.151 0v-27.33h-54.66v54.66h54.66zm72.151 0v-27.33h-54.66v54.66h54.66zm72.151 0v-27.33h-55.388v54.66h55.388zm72.151 0v-27.33h-55.388v54.66h55.388zm71.422 0v-27.33h-54.66v54.66h54.66z" fill="none" stroke-width=".1" stroke="red"/>
</g>
</svg>